<?xml version="1.0" standalone="no"?>
<!DOCTYPE svg PUBLIC "-//W3C//DTD SVG 20010904//EN"
 "http://www.w3.org/TR/2001/REC-SVG-20010904/DTD/svg10.dtd">
<svg version="1.0" xmlns="http://www.w3.org/2000/svg"
 width="512.000000pt" height="512.000000pt" viewBox="0 0 512.000000 512.000000"
 preserveAspectRatio="xMidYMid meet">

<g transform="translate(0.000000,512.000000) scale(0.100000,-0.100000)"
fill="#c90606" stroke="none">
<path d="M4010 4655 l-465 -465 -175 0 -175 0 -635 -635 -635 -635 -105 105
c-58 58 -109 105 -115 105 -6 0 -59 -48 -118 -108 l-107 -107 110 -110 110
-109 -708 -711 c-761 -763 -750 -751 -787 -890 -19 -75 -19 -194 0 -268 35
-133 57 -162 358 -462 237 -236 292 -286 342 -310 87 -41 149 -55 245 -55 103
1 155 12 240 52 59 29 129 95 780 745 l715 713 113 -113 112 -112 112 113 113
112 -113 113 -112 112 596 595 c328 327 643 651 701 720 247 293 416 604 491
898 24 97 27 125 27 287 0 157 -3 191 -23 265 -53 196 -145 350 -305 517 -55
57 -105 103 -111 103 -6 0 -220 -209 -476 -465z m514 -58 c19 -34 42 -86 52
-115 l19 -52 -1045 -1045 -1045 -1045 -177 177 -178 178 592 593 593 593 170
-6 170 -7 399 401 c220 220 403 398 408 395 4 -3 23 -33 42 -67z m7 -758 c-68
-169 -178 -350 -327 -539 -37 -47 -349 -367 -693 -713 l-626 -627 -77 77 -78
78 917 917 c504 504 919 915 921 913 2 -2 -15 -49 -37 -106z m-2563 -2797
c-490 -489 -706 -699 -736 -714 -53 -25 -134 -21 -185 11 -17 11 -143 131
-278 268 -220 222 -247 253 -259 295 -13 51 -8 103 17 153 8 16 326 342 706
723 l692 692 367 -367 368 -368 -692 -693z"/>
<path d="M1805 2070 l-110 -110 228 -228 227 -227 112 113 113 112 -225 225
c-124 124 -227 225 -230 225 -3 0 -55 -50 -115 -110z"/>
<path d="M1475 1740 l-110 -110 228 -228 227 -227 112 113 113 112 -225 225
c-124 124 -227 225 -230 225 -3 0 -55 -50 -115 -110z"/>
<path d="M1142 1407 c-56 -56 -102 -107 -102 -112 0 -5 100 -110 222 -232
l223 -223 112 112 113 113 -222 222 c-123 123 -227 223 -233 223 -6 0 -56 -46
-113 -103z"/>
<path d="M807 1072 l-107 -107 228 -228 227 -227 108 108 c59 59 107 112 107
117 0 13 -432 445 -445 445 -6 0 -59 -48 -118 -108z"/>
</g>
</svg>
